<svg width="175" height="11" viewBox="0 0 175 11" fill="none" xmlns="http://www.w3.org/2000/svg">
<path id="5ed50da9732318dbc65b05e98e741965 1 (Traced)" fill-rule="evenodd" clip-rule="evenodd" d="M0.519056 2.6095C1.03416 2.30275 1.05114 2.25212 0.817126 1.72168C0.363177 0.692288 0.468897 0.354595 1.32374 0.105591C2.30148 -0.179038 3.90409 0.132781 4.83225 0.788478C5.18376 1.03673 5.9921 1.57861 6.62875 1.99243L7.78629 2.74507C28.1255 2.73986 150.879 2.75294 175 2.75294L175 3.2217L175 3.69046L28.557 3.69046L22.2222 3.69046L21.4154 5.27298C20.1363 7.78177 18.0132 9.70948 15.4511 10.6882C14.2419 11.1503 13.9874 11.1113 14.1437 10.4874C14.4223 9.37535 15.6811 7.22938 16.6918 6.14393C17.4673 5.31117 18.1714 4.38808 19.4156 3.69571L13.0122 3.69308L7.82006 3.69046L6.83865 4.29028C6.29866 4.6201 5.57442 5.1241 5.22928 5.41023C3.83426 6.566 0.736288 6.82531 0.586387 5.79873C0.552432 5.56604 0.661243 5.10948 0.828315 4.78397C0.995387 4.45847 1.10998 4.18021 1.08297 4.16578C-0.165436 3.4962 -0.3082 3.10244 0.519056 2.6095ZM4.90247 3.60758C4.24229 4.02796 2.88391 4.16203 2.03698 3.89034C0.62806 3.43827 0.728186 2.95638 2.31652 2.5435C3.02108 2.36031 3.37703 2.36312 4.08988 2.557C5.30279 2.88719 5.54414 3.19901 4.90247 3.60758ZM2.42996 1.80568C1.81859 1.93918 1.67139 1.90955 1.51261 1.62117C1.11114 0.892163 1.26972 0.690226 2.23974 0.694538C3.28558 0.699226 4.51971 1.18673 5.08536 1.81843L5.47121 2.24931L4.9889 2.11337C3.59021 1.71942 3.09651 1.66018 2.42996 1.80568ZM5.08536 4.62497C4.51971 5.25667 3.28558 5.74417 2.23974 5.74886C1.49178 5.75224 1.32451 5.69261 1.32914 5.42486C1.34226 4.69772 1.66136 4.4699 2.43189 4.63809C3.09632 4.78322 3.59136 4.7236 4.9889 4.33003L5.47121 4.19409L5.08536 4.62497ZM18.7586 7.90833C17.8355 8.79128 15.754 10.0655 15.2351 10.0655C14.9162 10.0655 14.9679 9.9013 15.7168 8.53702C16.0934 7.85095 16.7862 6.89919 17.2567 6.42218C18.0977 5.56905 19.7279 4.44047 20.1189 4.44047C20.2285 4.44047 19.5483 5.19235 18.607 6.11131C17.3111 7.37676 16.9278 7.86314 17.0273 8.11571C17.1358 8.39003 17.4815 8.1369 18.9838 6.68281C19.9875 5.71136 20.8086 4.98423 20.8086 5.0671C20.8086 5.45711 19.6667 7.03963 18.7586 7.90833Z" fill="#B0A6BD"/>
</svg>
