<svg width="33" height="20" viewBox="0 0 33 20" fill="none" xmlns="http://www.w3.org/2000/svg">
<g id="Group">
<g id="Group_2">
<path id="Vector" d="M21.2004 17.8632H12.4512V2.13934H21.2004V17.8632Z" fill="#FF5F00"/>
<g id="Group_3">
<path id="Vector_2" d="M13.0117 10C13.0117 6.81035 14.5051 3.9691 16.8307 2.13809C15.1301 0.799161 12.9837 5.33497e-07 10.6511 5.33497e-07C5.12879 5.33497e-07 0.652344 4.47708 0.652344 10C0.652344 15.5229 5.12879 20 10.6511 20C12.9837 20 15.1301 19.2008 16.8307 17.8619C14.5051 16.0309 13.0117 13.1896 13.0117 10Z" fill="#EB001B"/>
</g>
<g id="Group_4">
<path id="Vector_3" d="M33.0003 10C33.0003 15.5229 28.5239 20 23.0016 20C20.669 20 18.5226 19.2008 16.8213 17.8619C19.1476 16.0309 20.641 13.1896 20.641 10C20.641 6.81035 19.1476 3.9691 16.8213 2.13809C18.5226 0.799161 20.669 5.33497e-07 23.0016 5.33497e-07C28.5239 5.33497e-07 33.0003 4.47708 33.0003 10Z" fill="#F79E1B"/>
</g>
</g>
<g id="Group_5">
<path id="Vector_4" d="M8.17625 10.0633C8.17625 9.62645 8.46248 9.26761 8.93022 9.26761C9.37714 9.26761 9.67885 9.61098 9.67885 10.0633C9.67885 10.5155 9.37714 10.8589 8.93022 10.8589C8.46248 10.8589 8.17625 10.5 8.17625 10.0633ZM10.1882 10.0633V8.8207H9.64791V9.12241C9.47652 8.89866 9.21646 8.75821 8.86298 8.75821C8.16613 8.75821 7.61983 9.30451 7.61983 10.0633C7.61983 10.8226 8.16613 11.3683 8.86298 11.3683C9.21646 11.3683 9.47652 11.2278 9.64791 11.0041V11.3058H10.1882V10.0633ZM28.448 10.0633C28.448 9.62645 28.7343 9.26761 29.202 9.26761C29.6495 9.26761 29.9506 9.61098 29.9506 10.0633C29.9506 10.5155 29.6495 10.8589 29.202 10.8589C28.7343 10.8589 28.448 10.5 28.448 10.0633ZM30.4606 10.0633V7.82273H29.9197V9.12241C29.7483 8.89866 29.4883 8.75821 29.1348 8.75821C28.4379 8.75821 27.8916 9.30451 27.8916 10.0633C27.8916 10.8226 28.4379 11.3683 29.1348 11.3683C29.4883 11.3683 29.7483 11.2278 29.9197 11.0041V11.3058H30.4606V10.0633ZM16.8955 9.24202C17.2437 9.24202 17.4674 9.46042 17.5245 9.84485H16.235C16.2927 9.48601 16.5105 9.24202 16.8955 9.24202ZM16.9062 8.75821C16.1778 8.75821 15.6684 9.28844 15.6684 10.0633C15.6684 10.8535 16.1987 11.3683 16.9425 11.3683C17.3169 11.3683 17.6596 11.2749 17.9613 11.0202L17.6965 10.6197C17.4882 10.7857 17.2228 10.8797 16.9735 10.8797C16.6254 10.8797 16.3082 10.7184 16.2302 10.2709H18.0756C18.0809 10.2037 18.0863 10.1359 18.0863 10.0633C18.0809 9.28844 17.6025 8.75821 16.9062 8.75821ZM23.4308 10.0633C23.4308 9.62645 23.7171 9.26761 24.1848 9.26761C24.6317 9.26761 24.9334 9.61098 24.9334 10.0633C24.9334 10.5155 24.6317 10.8589 24.1848 10.8589C23.7171 10.8589 23.4308 10.5 23.4308 10.0633ZM25.4428 10.0633V8.8207H24.9025V9.12241C24.7305 8.89866 24.471 8.75821 24.1176 8.75821C23.4207 8.75821 22.8744 9.30451 22.8744 10.0633C22.8744 10.8226 23.4207 11.3683 24.1176 11.3683C24.471 11.3683 24.7305 11.2278 24.9025 11.0041V11.3058H25.4428V10.0633ZM20.3792 10.0633C20.3792 10.8172 20.9041 11.3683 21.7051 11.3683C22.0794 11.3683 22.3287 11.285 22.5989 11.0719L22.3394 10.6351C22.1365 10.7809 21.9235 10.8589 21.689 10.8589C21.2575 10.8535 20.9404 10.5417 20.9404 10.0633C20.9404 9.5848 21.2575 9.27297 21.689 9.26761C21.9235 9.26761 22.1365 9.34557 22.3394 9.49137L22.5989 9.05457C22.3287 8.84153 22.0794 8.75821 21.7051 8.75821C20.9041 8.75821 20.3792 9.30927 20.3792 10.0633ZM27.3459 8.75821C27.0341 8.75821 26.8312 8.90401 26.6907 9.12241V8.8207H26.1552V11.3058H26.6961V9.91269C26.6961 9.50148 26.8728 9.27297 27.2263 9.27297C27.3358 9.27297 27.4501 9.28844 27.5643 9.33545L27.731 8.82605C27.6113 8.77904 27.4554 8.75821 27.3459 8.75821ZM12.8608 9.01827C12.6008 8.84688 12.2425 8.75821 11.8474 8.75821C11.2178 8.75821 10.8125 9.05993 10.8125 9.55385C10.8125 9.95911 11.1142 10.209 11.67 10.287L11.9253 10.3233C12.2217 10.365 12.3615 10.4429 12.3615 10.5834C12.3615 10.7756 12.164 10.8851 11.795 10.8851C11.4207 10.8851 11.1505 10.7655 10.9684 10.625L10.7137 11.0457C11.0101 11.2641 11.3844 11.3683 11.7896 11.3683C12.5073 11.3683 12.9233 11.0303 12.9233 10.5572C12.9233 10.1204 12.596 9.89186 12.0551 9.81391L11.8004 9.77701C11.5665 9.74607 11.379 9.69965 11.379 9.53302C11.379 9.35093 11.5558 9.24202 11.8521 9.24202C12.1693 9.24202 12.4764 9.36164 12.6269 9.45507L12.8608 9.01827ZM19.8329 8.75821C19.5211 8.75821 19.3181 8.90401 19.1783 9.12241V8.8207H18.6427V11.3058H19.1831V9.91269C19.1831 9.50148 19.3598 9.27297 19.7133 9.27297C19.8228 9.27297 19.937 9.28844 20.0513 9.33545L20.2179 8.82605C20.0983 8.77904 19.9424 8.75821 19.8329 8.75821ZM15.2215 8.8207H14.3378V8.06672H13.7915V8.8207H13.2875V9.31463H13.7915V10.4483C13.7915 11.0249 14.0153 11.3683 14.6544 11.3683C14.8889 11.3683 15.159 11.2957 15.3304 11.1761L15.1745 10.7131C15.0133 10.8065 14.8365 10.8535 14.6961 10.8535C14.4259 10.8535 14.3378 10.6869 14.3378 10.4376V9.31463H15.2215V8.8207ZM7.14198 11.3058V9.74607C7.14198 9.15871 6.76766 8.76357 6.16424 8.75821C5.84706 8.75286 5.51976 8.85164 5.29065 9.20037C5.11926 8.92484 4.84909 8.75821 4.46942 8.75821C4.20401 8.75821 3.94455 8.83617 3.74162 9.12717V8.8207H3.20068V11.3058H3.74638V9.92816C3.74638 9.49672 3.98561 9.26761 4.35516 9.26761C4.714 9.26761 4.8955 9.50148 4.8955 9.92281V11.3058H5.4418V9.92816C5.4418 9.49672 5.69114 9.26761 6.04998 9.26761C6.41894 9.26761 6.59568 9.50148 6.59568 9.92281V11.3058H7.14198Z" fill="white"/>
</g>
</g>
</svg>
