<svg width="175" height="11" viewBox="0 0 175 11" fill="none" xmlns="http://www.w3.org/2000/svg">
<path id="5ed50da9732318dbc65b05e98e741965 1 (Traced)" fill-rule="evenodd" clip-rule="evenodd" d="M174.481 2.6095C173.966 2.30275 173.949 2.25212 174.183 1.72168C174.637 0.692288 174.531 0.354595 173.676 0.105591C172.699 -0.179038 171.096 0.132781 170.168 0.788478C169.816 1.03673 169.008 1.57861 168.371 1.99243L167.214 2.74507C146.875 2.73986 24.1209 2.75294 -1.20335e-07 2.75294L-1.40825e-07 3.2217L-1.61315e-07 3.69046L146.443 3.69046L152.778 3.69046L153.585 5.27298C154.864 7.78177 156.987 9.70948 159.549 10.6882C160.758 11.1503 161.013 11.1113 160.856 10.4874C160.578 9.37535 159.319 7.22938 158.308 6.14393C157.533 5.31117 156.829 4.38808 155.584 3.69571L161.988 3.69308L167.18 3.69046L168.161 4.29028C168.701 4.6201 169.426 5.1241 169.771 5.41023C171.166 6.566 174.264 6.82531 174.414 5.79873C174.448 5.56604 174.339 5.10948 174.172 4.78397C174.005 4.45847 173.89 4.18021 173.917 4.16578C175.165 3.4962 175.308 3.10244 174.481 2.6095ZM170.098 3.60758C170.758 4.02796 172.116 4.16203 172.963 3.89034C174.372 3.43827 174.272 2.95638 172.683 2.5435C171.979 2.36031 171.623 2.36312 170.91 2.557C169.697 2.88719 169.456 3.19901 170.098 3.60758ZM172.57 1.80568C173.181 1.93918 173.329 1.90955 173.487 1.62117C173.889 0.892163 173.73 0.690226 172.76 0.694538C171.714 0.699226 170.48 1.18673 169.915 1.81843L169.529 2.24931L170.011 2.11337C171.41 1.71942 171.903 1.66018 172.57 1.80568ZM169.915 4.62497C170.48 5.25667 171.714 5.74417 172.76 5.74886C173.508 5.75224 173.675 5.69261 173.671 5.42486C173.658 4.69772 173.339 4.4699 172.568 4.63809C171.904 4.78322 171.409 4.7236 170.011 4.33003L169.529 4.19409L169.915 4.62497ZM156.241 7.90833C157.165 8.79128 159.246 10.0655 159.765 10.0655C160.084 10.0655 160.032 9.9013 159.283 8.53702C158.907 7.85095 158.214 6.89919 157.743 6.42218C156.902 5.56905 155.272 4.44047 154.881 4.44047C154.771 4.44047 155.452 5.19235 156.393 6.11131C157.689 7.37676 158.072 7.86314 157.973 8.11571C157.864 8.39003 157.519 8.1369 156.016 6.68281C155.012 5.71136 154.191 4.98423 154.191 5.0671C154.191 5.45711 155.333 7.03963 156.241 7.90833Z" fill="#B0A6BD"/>
</svg>
