<svg width="38" height="12" viewBox="0 0 38 12" fill="none" xmlns="http://www.w3.org/2000/svg">
<g id="Group">
<path id="polygon9" d="M16.4669 11.5354H13.3887L15.314 0.499878H18.3921L16.4669 11.5354Z" fill="#00579F"/>
<path id="path11" d="M27.626 0.769813C27.0189 0.546525 26.0559 0.299988 24.8651 0.299988C21.8252 0.299988 19.6845 1.80262 19.6714 3.95092C19.6462 5.53594 21.2041 6.41629 22.3692 6.94479C23.5602 7.48483 23.965 7.83731 23.965 8.31868C23.9529 9.05798 23.0027 9.39877 22.1164 9.39877C20.8874 9.39877 20.2289 9.22307 19.2282 8.81176L18.8228 8.63544L18.3921 11.1127C19.1141 11.4176 20.4442 11.6881 21.8252 11.7C25.0551 11.7 27.1579 10.2206 27.1828 7.93125C27.1951 6.675 26.3725 5.71241 24.5989 4.92583C23.5223 4.4209 22.863 4.08043 22.863 3.5638C22.8756 3.09413 23.4206 2.61307 24.636 2.61307C25.6367 2.58951 26.372 2.81248 26.929 3.03561L27.2074 3.1528L27.626 0.769813Z" fill="#00579F"/>
<path id="path13" d="M31.7172 7.62589C31.9707 6.99192 32.9462 4.53825 32.9462 4.53825C32.9334 4.56181 33.1992 3.89257 33.3512 3.48173L33.5663 4.43261C33.5663 4.43261 34.1492 7.07415 34.2758 7.62589C33.7947 7.62589 32.3252 7.62589 31.7172 7.62589ZM35.5169 0.499878H33.1359C32.4016 0.499878 31.8438 0.699292 31.527 1.4155L26.9546 11.5352H30.1845C30.1845 11.5352 30.7163 10.1732 30.8306 9.87983C31.1849 9.87983 34.327 9.87983 34.7828 9.87983C34.8712 10.2673 35.1501 11.5352 35.1501 11.5352H38.0003L35.5169 0.499878Z" fill="#00579F"/>
<path id="path15" d="M10.8177 0.499878L7.8031 8.02503L7.47368 6.49884C6.91634 4.73782 5.16839 2.8245 3.21777 1.87315L5.97907 11.5237H9.23425L14.0728 0.499878H10.8177Z" fill="#00579F"/>
<path id="path17" d="M5.00378 0.499878H0.0511556L0.000488281 0.722853C3.86385 1.63863 6.42248 3.84607 7.4737 6.49931L6.39706 1.42751C6.21981 0.722697 5.67509 0.523127 5.00378 0.499878Z" fill="#FAA61A"/>
</g>
</svg>
